<svg width="16" height="11" viewBox="0 0 16 11" fill="none" xmlns="http://www.w3.org/2000/svg">
<path fill-rule="evenodd" clip-rule="evenodd" d="M0 0.9375C0 0.419733 0.419733 0 0.9375 0C1.45527 0 1.875 0.419733 1.875 0.9375C1.875 1.45527 1.45527 1.875 0.9375 1.875C0.419733 1.875 0 1.45527 0 0.9375ZM4.0625 0.9375C4.0625 0.592322 4.34232 0.3125 4.6875 0.3125H14.6875C15.0327 0.3125 15.3125 0.592322 15.3125 0.9375C15.3125 1.28268 15.0327 1.5625 14.6875 1.5625H4.6875C4.34232 1.5625 4.0625 1.28268 4.0625 0.9375ZM0 5.3125C0 4.79473 0.419733 4.375 0.9375 4.375C1.45527 4.375 1.875 4.79473 1.875 5.3125C1.875 5.83027 1.45527 6.25 0.9375 6.25C0.419733 6.25 0 5.83027 0 5.3125ZM4.0625 5.3125C4.0625 4.96732 4.34232 4.6875 4.6875 4.6875H14.6875C15.0327 4.6875 15.3125 4.96732 15.3125 5.3125C15.3125 5.65768 15.0327 5.9375 14.6875 5.9375H4.6875C4.34232 5.9375 4.0625 5.65768 4.0625 5.3125ZM0 9.6875C0 9.16973 0.419733 8.75 0.9375 8.75C1.45527 8.75 1.875 9.16973 1.875 9.6875C1.875 10.2053 1.45527 10.625 0.9375 10.625C0.419733 10.625 0 10.2053 0 9.6875ZM4.0625 9.6875C4.0625 9.34232 4.34232 9.0625 4.6875 9.0625H14.6875C15.0327 9.0625 15.3125 9.34232 15.3125 9.6875C15.3125 10.0327 15.0327 10.3125 14.6875 10.3125H4.6875C4.34232 10.3125 4.0625 10.0327 4.0625 9.6875Z" fill="#091E51"/>
</svg>
