<svg width="32" height="32" viewBox="0 0 32 32" fill="none" xmlns="http://www.w3.org/2000/svg">
<path fill-rule="evenodd" clip-rule="evenodd" d="M12.7045 2.28999C12.9912 2.57666 13.0764 3.00805 12.9203 3.38219C12.3277 4.80223 12 6.36142 12 7.99969C12 14.6271 17.3726 19.9997 24 19.9997C25.6383 19.9997 27.1975 19.6719 28.6175 19.0794C28.9916 18.9233 29.423 19.0085 29.7097 19.2952C29.9964 19.5818 30.0816 20.0132 29.9255 20.3874C27.8158 25.4432 22.8244 28.9997 17 28.9997C9.26801 28.9997 3 22.7317 3 14.9997C3 9.1753 6.55646 4.1839 11.6123 2.07422C11.9865 1.9181 12.4178 2.00332 12.7045 2.28999Z" fill="#091E51"/>
</svg>
